<svg xmlns="http://www.w3.org/2000/svg" version="1.1" viewBox="0.00 0.00 500.00 300.00" width="500.00" height="300.00">
<g stroke-width="2.00" fill="none" stroke-linecap="butt">
<path stroke="#ffbb80" vector-effect="non-scaling-stroke" d="&#10;  M 246.70 176.33&#10;  Q 243.57 160.71 241.53 145.44&#10;  C 240.56 138.17 239.09 131.01 237.95 123.76&#10;  Q 231.46 82.60 224.98 41.46&#10;  C 224.38 37.63 223.41 34.70 218.80 35.30&#10;  Q 203.79 37.23 189.00 39.89&#10;  Q 186.32 40.37 184.00 40.74&#10;  Q 143.26 47.35 97.00 54.45&#10;  Q 91.78 55.25 92.21 60.72&#10;  Q 92.79 68.02 99.55 66.88&#10;  Q 125.80 62.46 152.97 58.36&#10;  Q 160.73 57.19 166.24 56.11&#10;  C 172.03 54.97 178.00 54.53 183.80 53.24&#10;  C 186.03 52.75 190.04 52.28 191.85 54.12&#10;  Q 193.40 55.69 193.63 57.34&#10;  Q 195.32 69.42 197.64 84.06&#10;  Q 207.12 143.86 216.35 202.19&#10;  Q 218.29 214.50 216.91 225.24&#10;  C 216.31 229.81 213.74 233.62 211.72 237.73&#10;  C 210.44 240.33 210.94 242.45 212.85 244.56&#10;  Q 216.20 248.25 220.97 246.46&#10;  Q 223.37 245.55 226.14 244.49"/>
<path stroke="#ffbb80" vector-effect="non-scaling-stroke" d="&#10;  M 90.00 263.59&#10;  Q 90.14 260.98 89.67 258.10&#10;  C 88.81 252.86 88.28 248.11 87.25 243.16&#10;  C 86.87 241.35 86.80 239.37 86.50 237.50&#10;  Q 78.52 187.87 70.78 138.49&#10;  Q 68.12 121.53 65.44 105.44&#10;  C 64.67 100.85 65.34 88.91 57.62 90.36&#10;  Q 50.85 91.62 43.63 92.50&#10;  Q 38.17 93.16 33.38 94.49&#10;  A 3.19 3.18 -6.5 0 0 31.05 97.42&#10;  Q 30.89 100.95 31.53 105.05&#10;  Q 41.12 166.39 53.18 242.31&#10;  Q 53.98 247.38 54.13 252.69"/>
<path stroke="#ffbb80" vector-effect="non-scaling-stroke" d="&#10;  M 73.56 75.36&#10;  A 5.28 5.28 0.0 0 0 77.04 67.04&#10;  L 67.29 53.59&#10;  A 5.28 5.28 0.0 0 0 62.22 51.47&#10;  L 40.50 54.78&#10;  A 5.28 5.28 0.0 0 0 37.03 63.10&#10;  L 46.77 76.54&#10;  A 5.28 5.28 0.0 0 0 51.84 78.67&#10;  L 73.56 75.36"/>
<path stroke="#ffbb80" vector-effect="non-scaling-stroke" d="&#10;  M 117.15 111.41&#10;  Q 120.52 131.45 123.99 153.57&#10;  Q 130.94 197.98 137.54 239.00&#10;  C 137.99 241.80 140.65 242.27 143.00 241.98&#10;  Q 154.55 240.56 165.95 238.61&#10;  Q 171.48 237.67 170.61 232.29&#10;  Q 160.35 168.94 150.63 106.58&#10;  Q 150.40 105.06 151.94 104.96&#10;  L 152.93 104.90&#10;  A 1.75 1.75 0.0 0 1 154.74 106.26&#10;  Q 167.86 164.87 180.80 222.58&#10;  C 181.50 225.71 181.99 231.22 186.34 231.01&#10;  Q 189.29 230.87 191.71 230.42&#10;  Q 200.06 228.89 208.85 227.70&#10;  C 212.27 227.24 215.67 225.71 214.88 221.52&#10;  Q 213.63 214.91 211.82 207.02&#10;  Q 207.16 186.72 201.96 163.00&#10;  C 200.74 157.39 199.24 151.88 197.96 146.15&#10;  Q 192.82 123.06 187.74 100.45&#10;  Q 187.48 99.29 188.67 99.15&#10;  Q 190.50 98.93 192.18 98.59&#10;  C 196.05 97.79 195.13 92.07 194.48 89.46&#10;  Q 193.83 86.87 189.97 86.89&#10;  C 184.32 86.92 178.36 88.25 172.76 89.07&#10;  C 165.41 90.16 158.20 91.76 150.93 92.45&#10;  C 150.20 92.52 149.52 92.99 148.79 93.01&#10;  Q 148.27 93.03 148.20 92.51&#10;  Q 147.23 85.57 146.21 78.28&#10;  C 145.67 74.38 144.21 72.45 139.77 73.06&#10;  Q 128.43 74.60 118.98 76.22&#10;  Q 116.44 76.65 114.26 77.42&#10;  A 1.34 1.34 0.0 0 0 113.44 78.32&#10;  Q 112.73 80.94 113.17 83.80&#10;  Q 114.21 90.46 114.38 97.40&#10;  Q 114.39 97.99 113.82 98.13&#10;  C 105.31 100.15 96.62 101.00 88.16 102.45&#10;  Q 80.45 103.78 73.19 105.06&#10;  C 70.13 105.60 70.89 110.63 71.05 112.91&#10;  C 71.40 117.75 75.61 116.94 79.02 116.80&#10;  Q 79.73 116.77 79.84 117.47&#10;  Q 84.40 145.95 86.39 167.31&#10;  Q 87.63 180.66 88.74 193.18&#10;  C 90.21 209.87 90.79 225.81 92.04 242.54&#10;  C 92.35 246.68 96.09 248.00 99.69 248.00&#10;  Q 102.02 248.00 103.17 246.01&#10;  Q 108.78 236.38 111.68 225.65&#10;  Q 117.09 205.72 117.00 184.17&#10;  C 116.96 175.02 117.01 165.85 116.93 156.75&#10;  C 116.89 152.83 116.19 149.13 116.08 145.31&#10;  C 115.77 134.13 113.83 122.96 113.57 111.77&#10;  A 0.77 0.77 0.0 0 1 114.30 110.98&#10;  L 116.46 110.86&#10;  Q 117.05 110.83 117.15 111.41"/>
</g>
<path fill="#ff7700" d="&#10;  M 246.70 176.33&#10;  Q 243.57 160.71 241.53 145.44&#10;  C 240.56 138.17 239.09 131.01 237.95 123.76&#10;  Q 231.46 82.60 224.98 41.46&#10;  C 224.38 37.63 223.41 34.70 218.80 35.30&#10;  Q 203.79 37.23 189.00 39.89&#10;  Q 186.32 40.37 184.00 40.74&#10;  Q 143.26 47.35 97.00 54.45&#10;  Q 91.78 55.25 92.21 60.72&#10;  Q 92.79 68.02 99.55 66.88&#10;  Q 125.80 62.46 152.97 58.36&#10;  Q 160.73 57.19 166.24 56.11&#10;  C 172.03 54.97 178.00 54.53 183.80 53.24&#10;  C 186.03 52.75 190.04 52.28 191.85 54.12&#10;  Q 193.40 55.69 193.63 57.34&#10;  Q 195.32 69.42 197.64 84.06&#10;  Q 207.12 143.86 216.35 202.19&#10;  Q 218.29 214.50 216.91 225.24&#10;  C 216.31 229.81 213.74 233.62 211.72 237.73&#10;  C 210.44 240.33 210.94 242.45 212.85 244.56&#10;  Q 216.20 248.25 220.97 246.46&#10;  Q 223.37 245.55 226.14 244.49&#10;  Q 221.97 258.21 217.89 271.79&#10;  Q 214.46 283.23 212.06 286.18&#10;  Q 205.15 294.68 193.97 293.68&#10;  Q 190.01 293.33 183.54 291.23&#10;  Q 178.63 289.63 173.68 288.19&#10;  C 152.00 281.91 129.81 274.97 107.57 268.69&#10;  Q 98.79 266.21 90.00 263.59&#10;  Q 90.14 260.98 89.67 258.10&#10;  C 88.81 252.86 88.28 248.11 87.25 243.16&#10;  C 86.87 241.35 86.80 239.37 86.50 237.50&#10;  Q 78.52 187.87 70.78 138.49&#10;  Q 68.12 121.53 65.44 105.44&#10;  C 64.67 100.85 65.34 88.91 57.62 90.36&#10;  Q 50.85 91.62 43.63 92.50&#10;  Q 38.17 93.16 33.38 94.49&#10;  A 3.19 3.18 -6.5 0 0 31.05 97.42&#10;  Q 30.89 100.95 31.53 105.05&#10;  Q 41.12 166.39 53.18 242.31&#10;  Q 53.98 247.38 54.13 252.69&#10;  Q 34.74 247.25 23.46 243.55&#10;  Q 12.97 240.11 10.03 230.72&#10;  Q 8.90 227.12 9.36 213.72&#10;  Q 10.27 186.89 11.79 163.98&#10;  Q 12.44 154.21 12.91 143.99&#10;  Q 15.67 84.08 18.55 26.98&#10;  Q 19.26 12.84 31.02 6.84&#10;  C 33.61 5.52 38.33 5.97 41.69 6.07&#10;  C 55.67 6.48 69.67 8.17 83.27 9.21&#10;  C 92.19 9.90 102.19 11.21 109.92 11.93&#10;  Q 162.57 16.89 214.79 21.89&#10;  C 232.00 23.54 249.03 25.55 266.62 26.85&#10;  C 273.84 27.39 279.41 32.47 282.93 38.23&#10;  Q 284.27 40.42 284.23 43.91&#10;  C 284.18 49.53 283.78 54.24 282.08 59.77&#10;  Q 264.32 117.55 246.70 176.33&#10;  Z&#10;  M 73.56 75.36&#10;  A 5.28 5.28 0.0 0 0 77.04 67.04&#10;  L 67.29 53.59&#10;  A 5.28 5.28 0.0 0 0 62.22 51.47&#10;  L 40.50 54.78&#10;  A 5.28 5.28 0.0 0 0 37.03 63.10&#10;  L 46.77 76.54&#10;  A 5.28 5.28 0.0 0 0 51.84 78.67&#10;  L 73.56 75.36&#10;  Z&#10;  M 117.15 111.41&#10;  Q 120.52 131.45 123.99 153.57&#10;  Q 130.94 197.98 137.54 239.00&#10;  C 137.99 241.80 140.65 242.27 143.00 241.98&#10;  Q 154.55 240.56 165.95 238.61&#10;  Q 171.48 237.67 170.61 232.29&#10;  Q 160.35 168.94 150.63 106.58&#10;  Q 150.40 105.06 151.94 104.96&#10;  L 152.93 104.90&#10;  A 1.75 1.75 0.0 0 1 154.74 106.26&#10;  Q 167.86 164.87 180.80 222.58&#10;  C 181.50 225.71 181.99 231.22 186.34 231.01&#10;  Q 189.29 230.87 191.71 230.42&#10;  Q 200.06 228.89 208.85 227.70&#10;  C 212.27 227.24 215.67 225.71 214.88 221.52&#10;  Q 213.63 214.91 211.82 207.02&#10;  Q 207.16 186.72 201.96 163.00&#10;  C 200.74 157.39 199.24 151.88 197.96 146.15&#10;  Q 192.82 123.06 187.74 100.45&#10;  Q 187.48 99.29 188.67 99.15&#10;  Q 190.50 98.93 192.18 98.59&#10;  C 196.05 97.79 195.13 92.07 194.48 89.46&#10;  Q 193.83 86.87 189.97 86.89&#10;  C 184.32 86.92 178.36 88.25 172.76 89.07&#10;  C 165.41 90.16 158.20 91.76 150.93 92.45&#10;  C 150.20 92.52 149.52 92.99 148.79 93.01&#10;  Q 148.27 93.03 148.20 92.51&#10;  Q 147.23 85.57 146.21 78.28&#10;  C 145.67 74.38 144.21 72.45 139.77 73.06&#10;  Q 128.43 74.60 118.98 76.22&#10;  Q 116.44 76.65 114.26 77.42&#10;  A 1.34 1.34 0.0 0 0 113.44 78.32&#10;  Q 112.73 80.94 113.17 83.80&#10;  Q 114.21 90.46 114.38 97.40&#10;  Q 114.39 97.99 113.82 98.13&#10;  C 105.31 100.15 96.62 101.00 88.16 102.45&#10;  Q 80.45 103.78 73.19 105.06&#10;  C 70.13 105.60 70.89 110.63 71.05 112.91&#10;  C 71.40 117.75 75.61 116.94 79.02 116.80&#10;  Q 79.73 116.77 79.84 117.47&#10;  Q 84.40 145.95 86.39 167.31&#10;  Q 87.63 180.66 88.74 193.18&#10;  C 90.21 209.87 90.79 225.81 92.04 242.54&#10;  C 92.35 246.68 96.09 248.00 99.69 248.00&#10;  Q 102.02 248.00 103.17 246.01&#10;  Q 108.78 236.38 111.68 225.65&#10;  Q 117.09 205.72 117.00 184.17&#10;  C 116.96 175.02 117.01 165.85 116.93 156.75&#10;  C 116.89 152.83 116.19 149.13 116.08 145.31&#10;  C 115.77 134.13 113.83 122.96 113.57 111.77&#10;  A 0.77 0.77 0.0 0 1 114.30 110.98&#10;  L 116.46 110.86&#10;  Q 117.05 110.83 117.15 111.41&#10;  Z"/>
<path fill="#40191b" d="&#10;  M 330.30 205.69&#10;  Q 332.20 206.03 334.12 206.03&#10;  Q 395.52 205.96 452.97 206.03&#10;  A 1.13 1.13 0.0 0 0 454.02 204.47&#10;  Q 452.70 201.31 451.45 198.52&#10;  Q 442.44 178.46 433.79 159.75&#10;  Q 433.13 158.33 432.91 156.96&#10;  Q 432.78 156.20 433.55 156.17&#10;  Q 444.57 155.71 455.26 155.04&#10;  Q 459.48 154.77 463.67 155.04&#10;  A 3.11 3.10 81.4 0 1 466.37 157.04&#10;  L 486.75 210.85&#10;  A 1.15 1.14 -36.0 0 1 486.57 211.97&#10;  Q 480.98 218.99 476.98 226.32&#10;  Q 476.04 228.04 474.09 228.04&#10;  Q 387.46 227.96 299.61 228.02&#10;  Q 299.10 228.02 299.08 227.51&#10;  Q 298.71 217.57 299.00 208.48&#10;  Q 299.10 205.58 300.45 201.97&#10;  C 306.26 186.52 312.37 171.56 318.34 155.82&#10;  Q 321.09 148.56 324.01 141.46&#10;  A 2.12 2.07 -53.5 0 0 323.72 139.36&#10;  Q 323.48 139.04 322.49 139.04&#10;  Q 306.99 138.98 291.66 139.00&#10;  Q 291.03 139.00 291.03 138.38&#10;  Q 290.94 131.55 291.05 124.44&#10;  C 291.09 121.95 292.12 119.82 292.02 117.37&#10;  Q 291.99 116.70 292.66 116.70&#10;  L 311.15 116.74&#10;  Q 311.60 116.74 312.02 116.89&#10;  Q 312.28 116.98 312.56 116.99&#10;  Q 344.37 117.03 376.18 116.98&#10;  Q 377.05 116.98 377.02 116.11&#10;  L 375.77 74.74&#10;  A 0.78 0.78 0.0 0 0 374.99 73.99&#10;  L 294.02 74.01&#10;  Q 292.70 74.01 292.90 72.71&#10;  Q 293.81 66.71 295.32 59.56&#10;  Q 295.96 56.54 296.09 53.68&#10;  A 0.69 0.69 0.0 0 1 296.78 53.02&#10;  L 375.97 52.99&#10;  A 0.90 0.90 0.0 0 0 376.86 52.19&#10;  C 377.33 47.53 375.72 43.29 375.26 38.79&#10;  Q 374.85 34.74 375.01 30.63&#10;  A 0.57 0.56 -88.9 0 1 375.57 30.08&#10;  L 404.14 29.98&#10;  A 0.86 0.86 0.0 0 1 405.01 30.82&#10;  Q 405.12 37.19 406.58 44.37&#10;  C 407.06 46.73 406.88 49.11 407.21 51.46&#10;  A 1.77 1.75 86.1 0 0 408.95 52.99&#10;  L 484.94 53.01&#10;  A 1.23 1.22 86.2 0 1 486.15 54.08&#10;  Q 487.45 63.73 486.88 73.37&#10;  Q 486.85 74.00 486.22 74.00&#10;  L 407.69 73.99&#10;  A 0.51 0.51 0.0 0 0 407.18 74.46&#10;  Q 405.64 95.43 406.05 115.79&#10;  Q 406.08 116.99 407.28 116.99&#10;  L 492.20 117.02&#10;  A 0.77 0.76 -0.0 0 1 492.97 117.78&#10;  L 493.00 137.25&#10;  A 0.76 0.75 -90.0 0 1 492.25 138.01&#10;  L 357.99 137.98&#10;  Q 355.67 137.98 354.85 140.14&#10;  L 330.08 205.31&#10;  A 0.29 0.28 15.2 0 0 330.30 205.69&#10;  Z"/>
<path fill="#ffffff" d="&#10;  M 246.70 176.33&#10;  L 226.14 244.49&#10;  Q 223.37 245.55 220.97 246.46&#10;  Q 216.20 248.25 212.85 244.56&#10;  C 210.94 242.45 210.44 240.33 211.72 237.73&#10;  C 213.74 233.62 216.31 229.81 216.91 225.24&#10;  Q 218.29 214.50 216.35 202.19&#10;  Q 207.12 143.86 197.64 84.06&#10;  Q 195.32 69.42 193.63 57.34&#10;  Q 193.40 55.69 191.85 54.12&#10;  C 190.04 52.28 186.03 52.75 183.80 53.24&#10;  C 178.00 54.53 172.03 54.97 166.24 56.11&#10;  Q 160.73 57.19 152.97 58.36&#10;  Q 125.80 62.46 99.55 66.88&#10;  Q 92.79 68.02 92.21 60.72&#10;  Q 91.78 55.25 97.00 54.45&#10;  Q 143.26 47.35 184.00 40.74&#10;  Q 186.32 40.37 189.00 39.89&#10;  Q 203.79 37.23 218.80 35.30&#10;  C 223.41 34.70 224.38 37.63 224.98 41.46&#10;  Q 231.46 82.60 237.95 123.76&#10;  C 239.09 131.01 240.56 138.17 241.53 145.44&#10;  Q 243.57 160.71 246.70 176.33&#10;  Z"/>
<path fill="#ffffff" d="&#10;  M 73.56 75.36&#10;  L 51.84 78.67&#10;  A 5.28 5.28 0.0 0 1 46.77 76.54&#10;  L 37.03 63.10&#10;  A 5.28 5.28 0.0 0 1 40.50 54.78&#10;  L 62.22 51.47&#10;  A 5.28 5.28 0.0 0 1 67.29 53.59&#10;  L 77.04 67.04&#10;  A 5.28 5.28 0.0 0 1 73.56 75.36&#10;  Z"/>
<path fill="#ffffff" d="&#10;  M 117.15 111.41&#10;  Q 117.05 110.83 116.46 110.86&#10;  L 114.30 110.98&#10;  A 0.77 0.77 0.0 0 0 113.57 111.77&#10;  C 113.83 122.96 115.77 134.13 116.08 145.31&#10;  C 116.19 149.13 116.89 152.83 116.93 156.75&#10;  C 117.01 165.85 116.96 175.02 117.00 184.17&#10;  Q 117.09 205.72 111.68 225.65&#10;  Q 108.78 236.38 103.17 246.01&#10;  Q 102.02 248.00 99.69 248.00&#10;  C 96.09 248.00 92.35 246.68 92.04 242.54&#10;  C 90.79 225.81 90.21 209.87 88.74 193.18&#10;  Q 87.63 180.66 86.39 167.31&#10;  Q 84.40 145.95 79.84 117.47&#10;  Q 79.73 116.77 79.02 116.80&#10;  C 75.61 116.94 71.40 117.75 71.05 112.91&#10;  C 70.89 110.63 70.13 105.60 73.19 105.06&#10;  Q 80.45 103.78 88.16 102.45&#10;  C 96.62 101.00 105.31 100.15 113.82 98.13&#10;  Q 114.39 97.99 114.38 97.40&#10;  Q 114.21 90.46 113.17 83.80&#10;  Q 112.73 80.94 113.44 78.32&#10;  A 1.34 1.34 0.0 0 1 114.26 77.42&#10;  Q 116.44 76.65 118.98 76.22&#10;  Q 128.43 74.60 139.77 73.06&#10;  C 144.21 72.45 145.67 74.38 146.21 78.28&#10;  Q 147.23 85.57 148.20 92.51&#10;  Q 148.27 93.03 148.79 93.01&#10;  C 149.52 92.99 150.20 92.52 150.93 92.45&#10;  C 158.20 91.76 165.41 90.16 172.76 89.07&#10;  C 178.36 88.25 184.32 86.92 189.97 86.89&#10;  Q 193.83 86.87 194.48 89.46&#10;  C 195.13 92.07 196.05 97.79 192.18 98.59&#10;  Q 190.50 98.93 188.67 99.15&#10;  Q 187.48 99.29 187.74 100.45&#10;  Q 192.82 123.06 197.96 146.15&#10;  C 199.24 151.88 200.74 157.39 201.96 163.00&#10;  Q 207.16 186.72 211.82 207.02&#10;  Q 213.63 214.91 214.88 221.52&#10;  C 215.67 225.71 212.27 227.24 208.85 227.70&#10;  Q 200.06 228.89 191.71 230.42&#10;  Q 189.29 230.87 186.34 231.01&#10;  C 181.99 231.22 181.50 225.71 180.80 222.58&#10;  Q 167.86 164.87 154.74 106.26&#10;  A 1.75 1.75 0.0 0 0 152.93 104.90&#10;  L 151.94 104.96&#10;  Q 150.40 105.06 150.63 106.58&#10;  Q 160.35 168.94 170.61 232.29&#10;  Q 171.48 237.67 165.95 238.61&#10;  Q 154.55 240.56 143.00 241.98&#10;  C 140.65 242.27 137.99 241.80 137.54 239.00&#10;  Q 130.94 197.98 123.99 153.57&#10;  Q 120.52 131.45 117.15 111.41&#10;  Z"/>
<path fill="#ffffff" d="&#10;  M 90.00 263.59&#10;  Q 72.63 256.46 54.13 252.69&#10;  Q 53.98 247.38 53.18 242.31&#10;  Q 41.12 166.39 31.53 105.05&#10;  Q 30.89 100.95 31.05 97.42&#10;  A 3.19 3.18 -6.5 0 1 33.38 94.49&#10;  Q 38.17 93.16 43.63 92.50&#10;  Q 50.85 91.62 57.62 90.36&#10;  C 65.34 88.91 64.67 100.85 65.44 105.44&#10;  Q 68.12 121.53 70.78 138.49&#10;  Q 78.52 187.87 86.50 237.50&#10;  C 86.80 239.37 86.87 241.35 87.25 243.16&#10;  C 88.28 248.11 88.81 252.86 89.67 258.10&#10;  Q 90.14 260.98 90.00 263.59&#10;  Z"/>
</svg>