<svg xmlns="http://www.w3.org/2000/svg" version="1.1" viewBox="0.00 0.00 300.00 300.00" width="300.00" height="300.00">
<g stroke-width="2.00" fill="none" stroke-linecap="butt">
<path stroke="#ffe080" d="&#10;  M 250.68 176.58&#10;  Q 246.96 155.66 244.19 135.39&#10;  C 244.02 134.13 243.61 132.90 243.41 131.63&#10;  Q 236.08 85.82 228.74 39.20&#10;  C 228.11 35.20 225.14 34.86 221.50 35.37&#10;  Q 208.70 37.14 194.02 39.43&#10;  Q 191.96 39.75 189.75 40.11&#10;  Q 146.76 47.14 103.72 53.86&#10;  C 100.38 54.38 96.01 54.72 96.12 59.25&#10;  C 96.22 63.05 97.04 67.92 102.21 67.10&#10;  Q 141.42 60.92 180.76 54.61&#10;  C 185.02 53.93 196.07 49.97 197.20 56.88&#10;  Q 204.64 102.41 211.60 148.48&#10;  Q 212.56 154.79 213.51 160.27&#10;  Q 217.49 183.31 221.07 208.00&#10;  Q 222.78 219.75 219.30 230.25&#10;  C 218.41 232.94 216.89 235.34 215.50 237.80&#10;  C 214.71 239.20 214.42 240.55 215.05 241.95&#10;  C 216.08 244.26 218.74 247.85 221.76 247.33&#10;  Q 223.91 246.96 230.08 244.64"/>
<path stroke="#ffe080" d="&#10;  M 94.85 264.03&#10;  Q 84.59 200.22 74.37 135.63&#10;  Q 74.21 134.57 74.04 133.53&#10;  Q 71.15 115.55 68.01 94.61&#10;  Q 67.24 89.44 61.88 90.25&#10;  Q 50.12 92.04 39.06 93.82&#10;  Q 33.64 94.70 34.40 99.50&#10;  Q 46.27 174.41 57.20 243.51&#10;  Q 58.10 249.16 58.25 252.74"/>
<path stroke="#ffe080" d="&#10;  M 44.40 54.68&#10;  A 5.31 5.31 0.0 0 0 40.90 63.02&#10;  L 50.68 76.65&#10;  A 5.31 5.31 0.0 0 0 55.81 78.80&#10;  L 77.63 75.41&#10;  A 5.31 5.31 0.0 0 0 81.13 67.07&#10;  L 71.35 53.44&#10;  A 5.31 5.31 0.0 0 0 66.22 51.29&#10;  L 44.40 54.68"/>
<path stroke="#ffe080" d="&#10;  M 158.33 105.20&#10;  Q 165.59 137.64 172.94 170.26&#10;  C 173.58 173.08 173.82 175.89 174.63 178.67&#10;  Q 175.53 181.70 176.24 184.88&#10;  Q 180.97 206.01 185.36 225.46&#10;  C 186.16 229.00 187.37 231.79 191.35 231.16&#10;  Q 203.59 229.21 214.86 227.40&#10;  A 5.15 5.15 0.0 0 0 219.07 221.19&#10;  L 191.77 99.97&#10;  A 0.35 0.35 0.0 0 1 192.07 99.54&#10;  C 195.89 99.08 199.87 98.38 199.31 93.28&#10;  C 198.88 89.41 197.99 85.64 193.02 86.42&#10;  Q 153.11 92.73 152.99 92.74&#10;  A 0.51 0.51 0.0 0 1 152.44 92.32&#10;  Q 151.34 85.88 150.39 78.70&#10;  C 149.93 75.24 148.45 72.09 144.48 72.72&#10;  Q 132.49 74.61 120.99 76.49&#10;  C 118.08 76.97 116.00 78.96 116.58 82.16&#10;  Q 117.96 89.78 118.63 97.33&#10;  A 0.90 0.89 -6.9 0 1 117.87 98.29&#10;  Q 97.81 101.50 78.55 104.57&#10;  Q 74.24 105.26 74.36 109.61&#10;  C 74.50 114.87 76.14 118.56 82.46 116.75&#10;  Q 83.62 116.42 83.81 117.60&#10;  Q 86.37 133.38 88.08 147.95&#10;  Q 93.63 195.18 95.71 241.97&#10;  C 95.79 243.77 96.40 245.84 98.12 246.74&#10;  C 100.59 248.04 105.02 249.42 106.93 246.41&#10;  C 113.58 235.90 117.17 223.01 118.96 210.69&#10;  Q 122.17 188.65 121.27 162.18&#10;  Q 120.43 137.73 117.26 111.98&#10;  A 0.76 0.76 0.0 0 1 117.93 111.13&#10;  L 120.42 110.84&#10;  Q 121.10 110.76 121.21 111.43&#10;  L 141.37 238.61&#10;  A 4.51 4.51 0.0 0 0 146.52 242.37&#10;  Q 158.25 240.55 170.18 238.70&#10;  Q 175.51 237.88 174.68 232.63&#10;  Q 164.66 169.36 154.62 105.98&#10;  Q 154.54 105.48 155.03 105.38&#10;  L 157.73 104.82&#10;  Q 158.22 104.72 158.33 105.20"/>
</g>
<path fill="#ffc100" d="&#10;  M 250.68 176.58&#10;  Q 246.96 155.66 244.19 135.39&#10;  C 244.02 134.13 243.61 132.90 243.41 131.63&#10;  Q 236.08 85.82 228.74 39.20&#10;  C 228.11 35.20 225.14 34.86 221.50 35.37&#10;  Q 208.70 37.14 194.02 39.43&#10;  Q 191.96 39.75 189.75 40.11&#10;  Q 146.76 47.14 103.72 53.86&#10;  C 100.38 54.38 96.01 54.72 96.12 59.25&#10;  C 96.22 63.05 97.04 67.92 102.21 67.10&#10;  Q 141.42 60.92 180.76 54.61&#10;  C 185.02 53.93 196.07 49.97 197.20 56.88&#10;  Q 204.64 102.41 211.60 148.48&#10;  Q 212.56 154.79 213.51 160.27&#10;  Q 217.49 183.31 221.07 208.00&#10;  Q 222.78 219.75 219.30 230.25&#10;  C 218.41 232.94 216.89 235.34 215.50 237.80&#10;  C 214.71 239.20 214.42 240.55 215.05 241.95&#10;  C 216.08 244.26 218.74 247.85 221.76 247.33&#10;  Q 223.91 246.96 230.08 244.64&#10;  Q 225.81 258.89 221.59 272.83&#10;  Q 218.65 282.53 216.14 286.03&#10;  Q 211.70 292.21 203.02 293.62&#10;  Q 198.54 294.35 192.25 292.54&#10;  Q 186.97 291.01 181.46 289.36&#10;  Q 153.52 280.99 99.60 265.17&#10;  Q 99.56 265.15 97.97 264.50&#10;  Q 96.72 263.99 94.85 264.03&#10;  Q 84.59 200.22 74.37 135.63&#10;  Q 74.21 134.57 74.04 133.53&#10;  Q 71.15 115.55 68.01 94.61&#10;  Q 67.24 89.44 61.88 90.25&#10;  Q 50.12 92.04 39.06 93.82&#10;  Q 33.64 94.70 34.40 99.50&#10;  Q 46.27 174.41 57.20 243.51&#10;  Q 58.10 249.16 58.25 252.74&#10;  Q 32.77 245.58 26.53 243.24&#10;  Q 17.26 239.76 14.28 231.53&#10;  Q 12.81 227.47 13.31 215.88&#10;  Q 13.83 204.01 14.51 189.13&#10;  C 14.88 181.12 15.10 173.23 15.72 165.46&#10;  C 17.04 149.07 17.21 134.02 17.99 119.00&#10;  Q 20.29 74.89 22.33 30.77&#10;  C 22.53 26.48 22.78 20.87 24.74 17.15&#10;  Q 28.37 10.25 34.40 7.14&#10;  Q 37.53 5.53 43.91 5.93&#10;  C 51.78 6.43 59.72 6.62 67.58 7.46&#10;  C 77.42 8.52 87.23 9.04 97.06 10.14&#10;  Q 107.96 11.36 117.70 12.26&#10;  Q 159.97 16.20 203.40 20.48&#10;  C 213.86 21.51 224.33 22.23 234.75 23.48&#10;  C 246.97 24.94 258.75 25.89 270.81 26.87&#10;  C 277.80 27.44 283.59 32.56 286.92 38.23&#10;  C 289.79 43.13 287.93 53.61 286.38 58.84&#10;  Q 283.51 68.54 280.87 76.92&#10;  Q 272.81 102.52 265.38 127.70&#10;  C 261.16 142.00 256.85 156.27 252.38 170.38&#10;  Q 251.57 172.94 250.68 176.58&#10;  Z&#10;  M 44.40 54.68&#10;  A 5.31 5.31 0.0 0 0 40.90 63.02&#10;  L 50.68 76.65&#10;  A 5.31 5.31 0.0 0 0 55.81 78.80&#10;  L 77.63 75.41&#10;  A 5.31 5.31 0.0 0 0 81.13 67.07&#10;  L 71.35 53.44&#10;  A 5.31 5.31 0.0 0 0 66.22 51.29&#10;  L 44.40 54.68&#10;  Z&#10;  M 158.33 105.20&#10;  Q 165.59 137.64 172.94 170.26&#10;  C 173.58 173.08 173.82 175.89 174.63 178.67&#10;  Q 175.53 181.70 176.24 184.88&#10;  Q 180.97 206.01 185.36 225.46&#10;  C 186.16 229.00 187.37 231.79 191.35 231.16&#10;  Q 203.59 229.21 214.86 227.40&#10;  A 5.15 5.15 0.0 0 0 219.07 221.19&#10;  L 191.77 99.97&#10;  A 0.35 0.35 0.0 0 1 192.07 99.54&#10;  C 195.89 99.08 199.87 98.38 199.31 93.28&#10;  C 198.88 89.41 197.99 85.64 193.02 86.42&#10;  Q 153.11 92.73 152.99 92.74&#10;  A 0.51 0.51 0.0 0 1 152.44 92.32&#10;  Q 151.34 85.88 150.39 78.70&#10;  C 149.93 75.24 148.45 72.09 144.48 72.72&#10;  Q 132.49 74.61 120.99 76.49&#10;  C 118.08 76.97 116.00 78.96 116.58 82.16&#10;  Q 117.96 89.78 118.63 97.33&#10;  A 0.90 0.89 -6.9 0 1 117.87 98.29&#10;  Q 97.81 101.50 78.55 104.57&#10;  Q 74.24 105.26 74.36 109.61&#10;  C 74.50 114.87 76.14 118.56 82.46 116.75&#10;  Q 83.62 116.42 83.81 117.60&#10;  Q 86.37 133.38 88.08 147.95&#10;  Q 93.63 195.18 95.71 241.97&#10;  C 95.79 243.77 96.40 245.84 98.12 246.74&#10;  C 100.59 248.04 105.02 249.42 106.93 246.41&#10;  C 113.58 235.90 117.17 223.01 118.96 210.69&#10;  Q 122.17 188.65 121.27 162.18&#10;  Q 120.43 137.73 117.26 111.98&#10;  A 0.76 0.76 0.0 0 1 117.93 111.13&#10;  L 120.42 110.84&#10;  Q 121.10 110.76 121.21 111.43&#10;  L 141.37 238.61&#10;  A 4.51 4.51 0.0 0 0 146.52 242.37&#10;  Q 158.25 240.55 170.18 238.70&#10;  Q 175.51 237.88 174.68 232.63&#10;  Q 164.66 169.36 154.62 105.98&#10;  Q 154.54 105.48 155.03 105.38&#10;  L 157.73 104.82&#10;  Q 158.22 104.72 158.33 105.20&#10;  Z"/>
<path fill="#ffffff" d="&#10;  M 250.68 176.58&#10;  L 230.08 244.64&#10;  Q 223.91 246.96 221.76 247.33&#10;  C 218.74 247.85 216.08 244.26 215.05 241.95&#10;  C 214.42 240.55 214.71 239.20 215.50 237.80&#10;  C 216.89 235.34 218.41 232.94 219.30 230.25&#10;  Q 222.78 219.75 221.07 208.00&#10;  Q 217.49 183.31 213.51 160.27&#10;  Q 212.56 154.79 211.60 148.48&#10;  Q 204.64 102.41 197.20 56.88&#10;  C 196.07 49.97 185.02 53.93 180.76 54.61&#10;  Q 141.42 60.92 102.21 67.10&#10;  C 97.04 67.92 96.22 63.05 96.12 59.25&#10;  C 96.01 54.72 100.38 54.38 103.72 53.86&#10;  Q 146.76 47.14 189.75 40.11&#10;  Q 191.96 39.75 194.02 39.43&#10;  Q 208.70 37.14 221.50 35.37&#10;  C 225.14 34.86 228.11 35.20 228.74 39.20&#10;  Q 236.08 85.82 243.41 131.63&#10;  C 243.61 132.90 244.02 134.13 244.19 135.39&#10;  Q 246.96 155.66 250.68 176.58&#10;  Z"/>
<path fill="#ffffff" d="&#10;  M 44.40 54.68&#10;  L 66.22 51.29&#10;  A 5.31 5.31 0.0 0 1 71.35 53.44&#10;  L 81.13 67.07&#10;  A 5.31 5.31 0.0 0 1 77.63 75.41&#10;  L 55.81 78.80&#10;  A 5.31 5.31 0.0 0 1 50.68 76.65&#10;  L 40.90 63.02&#10;  A 5.31 5.31 0.0 0 1 44.40 54.68&#10;  Z"/>
<path fill="#ffffff" d="&#10;  M 158.33 105.20&#10;  Q 158.22 104.72 157.73 104.82&#10;  L 155.03 105.38&#10;  Q 154.54 105.48 154.62 105.98&#10;  Q 164.66 169.36 174.68 232.63&#10;  Q 175.51 237.88 170.18 238.70&#10;  Q 158.25 240.55 146.52 242.37&#10;  A 4.51 4.51 0.0 0 1 141.37 238.61&#10;  L 121.21 111.43&#10;  Q 121.10 110.76 120.42 110.84&#10;  L 117.93 111.13&#10;  A 0.76 0.76 0.0 0 0 117.26 111.98&#10;  Q 120.43 137.73 121.27 162.18&#10;  Q 122.17 188.65 118.96 210.69&#10;  C 117.17 223.01 113.58 235.90 106.93 246.41&#10;  C 105.02 249.42 100.59 248.04 98.12 246.74&#10;  C 96.40 245.84 95.79 243.77 95.71 241.97&#10;  Q 93.63 195.18 88.08 147.95&#10;  Q 86.37 133.38 83.81 117.60&#10;  Q 83.62 116.42 82.46 116.75&#10;  C 76.14 118.56 74.50 114.87 74.36 109.61&#10;  Q 74.24 105.26 78.55 104.57&#10;  Q 97.81 101.50 117.87 98.29&#10;  A 0.90 0.89 -6.9 0 0 118.63 97.33&#10;  Q 117.96 89.78 116.58 82.16&#10;  C 116.00 78.96 118.08 76.97 120.99 76.49&#10;  Q 132.49 74.61 144.48 72.72&#10;  C 148.45 72.09 149.93 75.24 150.39 78.70&#10;  Q 151.34 85.88 152.44 92.32&#10;  A 0.51 0.51 0.0 0 0 152.99 92.74&#10;  Q 153.11 92.73 193.02 86.42&#10;  C 197.99 85.64 198.88 89.41 199.31 93.28&#10;  C 199.87 98.38 195.89 99.08 192.07 99.54&#10;  A 0.35 0.35 0.0 0 0 191.77 99.97&#10;  L 219.07 221.19&#10;  A 5.15 5.15 0.0 0 1 214.86 227.40&#10;  Q 203.59 229.21 191.35 231.16&#10;  C 187.37 231.79 186.16 229.00 185.36 225.46&#10;  Q 180.97 206.01 176.24 184.88&#10;  Q 175.53 181.70 174.63 178.67&#10;  C 173.82 175.89 173.58 173.08 172.94 170.26&#10;  Q 165.59 137.64 158.33 105.20&#10;  Z"/>
<path fill="#ffffff" d="&#10;  M 94.85 264.03&#10;  Q 77.49 256.59 58.25 252.74&#10;  Q 58.10 249.16 57.20 243.51&#10;  Q 46.27 174.41 34.40 99.50&#10;  Q 33.64 94.70 39.06 93.82&#10;  Q 50.12 92.04 61.88 90.25&#10;  Q 67.24 89.44 68.01 94.61&#10;  Q 71.15 115.55 74.04 133.53&#10;  Q 74.21 134.57 74.37 135.63&#10;  Q 84.59 200.22 94.85 264.03&#10;  Z"/>
</svg>